<svg width="16" height="16" viewBox="0 0 16 16" fill="none" xmlns="http://www.w3.org/2000/svg">
<path d="M15.8857 8C15.8857 3.65715 12.3429 0.114288 8.00003 0.114288C3.65717 0.114288 0.114314 3.65715 0.114314 8C0.114314 12.3429 3.65717 15.8857 8.00003 15.8857C12.3429 15.8857 15.8857 12.3429 15.8857 8ZM14.6286 8C14.6286 9.71429 13.9429 11.2 13.0286 12.3429C12.8 12.2286 12.6857 12 12.3429 11.7714C11.7715 11.2 11.0857 10.2857 10.6286 8.91429C12.3429 8 13.6 7.08572 14.4 6.51429C14.5143 6.97143 14.6286 7.54286 14.6286 8ZM13.9429 5.25715C13.2572 5.71429 12 6.74286 10.1715 7.65715C9.48574 5.02857 9.37146 2.51429 9.37146 1.6C11.4286 1.94286 13.1429 3.31429 13.9429 5.25715ZM12 13.2571C10.9715 14.0571 9.60003 14.5143 8.2286 14.6286C8.34288 14.0571 8.45717 13.1429 8.45717 12C8.45717 11.4286 8.45717 10.7429 8.34288 10.0571C8.68574 9.94286 9.0286 9.71429 9.48574 9.48572C10.0572 10.9714 10.8572 12 11.4286 12.6857C11.5429 12.9143 11.7715 13.1429 12 13.2571ZM9.0286 8.22857C8.68574 8.34286 8.45717 8.57143 8.11431 8.68572C7.31431 5.82857 4.91431 3.88572 3.77146 2.97143C4.80003 2.05715 6.40003 1.37143 8.00003 1.37143C8.00003 1.37143 8.00003 1.37143 8.11431 1.37143C8.11431 2.28572 8.11431 5.14286 9.0286 8.22857ZM7.08574 12C7.08574 13.1429 6.97146 13.9429 6.74288 14.5143C5.0286 14.1714 3.4286 13.2571 2.51431 11.7714C4.2286 11.5429 5.71431 11.0857 7.08574 10.6286C7.08574 11.0857 7.08574 11.5429 7.08574 12ZM6.85717 9.25715C5.37146 9.82857 3.65717 10.4 1.94288 10.6286C1.60003 9.82857 1.37146 8.91429 1.37146 8C1.37146 6.51429 1.8286 5.14286 2.74288 4C3.65717 4.68572 6.17146 6.62857 6.85717 9.25715Z" fill="white"/>
</svg>
