<svg width="16" height="16" viewBox="0 0 16 16" fill="none" xmlns="http://www.w3.org/2000/svg">
<path d="M16 8C16 5.82666 15.99 5.55534 15.952 4.702C15.912 3.85 15.778 3.27 15.58 2.76C15.376 2.234 15.102 1.78734 14.6573 1.34266C14.2127 0.898 13.7667 0.623334 13.24 0.42C12.73 0.222 12.15 0.0873332 11.298 0.0479998C10.4447 0.00799976 10.1733 -2.54692e-07 8 -3.49691e-07C5.82666 -4.44691e-07 5.55534 0.00999954 4.702 0.0479995C3.85063 0.0879995 3.26994 0.221999 2.76 0.419999C2.23463 0.623999 1.78731 0.897999 1.34263 1.34266C0.898628 1.78734 0.623314 2.23334 0.42 2.76C0.222628 3.27066 0.0873135 3.85066 0.0479992 4.702C0.00799918 5.55534 -2.54692e-07 5.82666 -3.49691e-07 8C-4.44691e-07 10.1733 0.010056 10.4447 0.0479989 11.298C0.0879988 12.1494 0.222628 12.7301 0.419999 13.24C0.623999 13.7654 0.898628 14.2127 1.34263 14.6574C1.78731 15.1014 2.23268 15.3767 2.76 15.58C3.26994 15.7774 3.85063 15.9127 4.702 15.952C5.55534 15.992 5.82666 16 8 16C10.1733 16 10.4447 15.9899 11.298 15.952C12.1493 15.912 12.7307 15.7774 13.24 15.58C13.766 15.376 14.2127 15.1014 14.6573 14.6574C15.102 14.2127 15.3767 13.7673 15.58 13.24C15.778 12.7301 15.9127 12.1494 15.952 11.298C15.992 10.4447 16 10.1733 16 8ZM14.56 8C14.56 10.1353 14.5493 10.39 14.5127 11.2333C14.476 12.0134 14.3467 12.4367 14.236 12.7179C14.0913 13.0927 13.918 13.3579 13.6387 13.6393C13.3587 13.9186 13.0927 14.092 12.718 14.2367C12.4367 14.3459 12.0133 14.4767 11.2333 14.512C10.3893 14.5499 10.136 14.5586 8 14.5586C5.864 14.5586 5.61 14.5487 4.76666 14.5094C3.98663 14.4687 3.56331 14.3386 3.28206 14.2287C2.90731 14.0793 2.64206 13.9094 2.36068 13.6294C2.08137 13.3499 1.908 13.08 1.76331 12.7094C1.65406 12.4294 1.52331 11.9993 1.488 11.2193C1.45006 10.37 1.44137 10.12 1.44137 7.98C1.44137 5.83934 1.45131 5.58934 1.49063 4.74066C1.53131 3.96 1.66137 3.53 1.77131 3.25C1.92068 2.87066 2.09063 2.61 2.37063 2.33066C2.65006 2.05 2.92 1.87066 3.29063 1.73066C3.57063 1.62066 4.00068 1.49134 4.78066 1.45066C5.62066 1.42066 5.88 1.41 8.01 1.41C10.1407 1.41 10.4007 1.42066 11.2507 1.45066C12.0307 1.49134 12.46 1.62066 12.74 1.73066C13.12 1.87066 13.38 2.05 13.6607 2.33066C13.94 2.61 14.12 2.87066 14.2593 3.25C14.37 3.53 14.5 3.95066 14.54 4.73066C14.57 5.58066 14.58 5.83066 14.58 7.97L14.56 8ZM12.108 8C12.108 5.73 10.268 3.892 8 3.892C5.73 3.892 3.892 5.732 3.892 8C3.892 10.27 5.732 12.108 8 12.108C10.27 12.108 12.108 10.268 12.108 8ZM5.33334 8C5.33334 6.52666 6.52666 5.33334 8 5.33334C9.47334 5.33334 10.6667 6.52666 10.6667 8C10.6667 9.47334 9.47334 10.6667 8 10.6667C6.52666 10.6667 5.33334 9.47334 5.33334 8ZM12.27 13.2306C11.74 13.2306 11.31 12.8 11.31 12.2706C11.31 11.7407 11.7407 11.3107 12.27 11.3107C12.7993 11.3107 13.2293 11.7414 13.2293 12.2706C13.23 12.7993 12.7993 13.2306 12.27 13.2306Z" fill="white"/>
</svg>
