<svg width="14" height="16" viewBox="0 0 14 16" fill="none" xmlns="http://www.w3.org/2000/svg">
<path d="M11.954 15.9686C11.6947 15.3785 11.518 14.7486 11.4373 14.0851C11.8447 14.7612 12.4867 15.2811 13.2527 15.5272C12.8827 14.8932 12.6133 14.1905 12.4633 13.4425C13.1027 12.8453 13.5027 11.9938 13.5027 11.0485C13.5027 9.23721 12.034 7.76854 10.2247 7.76854C9.96469 7.76854 9.71469 7.79854 9.47536 7.85321C9.60402 5.12654 10.9133 2.70987 12.8927 1.09254C12.4113 0.807873 11.852 0.64854 11.2427 0.64854C10.1027 0.64854 9.10069 1.22854 8.51202 2.10721C8.52935 1.56921 8.67735 1.06321 8.92269 0.621873L8.88202 0.621873C7.29202 0.621873 5.96602 1.75054 5.66402 3.25254C5.59002 2.97721 5.55002 2.68654 5.55002 2.38854C5.55002 2.17921 5.57002 1.97854 5.60736 1.77787C4.30536 2.19854 3.35601 3.40787 3.32938 4.84721C2.45007 3.72721 1.92607 2.30787 1.92607 0.779206C1.92607 0.519206 1.94138 0.259872 1.97064 -0.000793961C1.04138 1.45854 0.498068 3.17787 0.498068 5.03721C0.498067 11.0732 5.49536 14.3698 9.82202 14.3698C9.96135 14.3698 10.102 14.3698 10.242 14.3599C10.7014 15.0006 11.282 15.5599 11.9407 15.9999L11.954 15.9686Z" fill="white"/>
</svg>
