<svg width="135" height="61" viewBox="0 0 135 61" fill="none" xmlns="http://www.w3.org/2000/svg">
<path d="M76.2245 42.3062C76.2245 42.6235 76.4902 42.8762 76.8082 42.8611L81.5213 42.6365C81.8183 42.6223 82.0518 42.3779 82.0518 42.0812V27.2233C82.0518 26.9076 81.7885 26.6553 81.4725 26.6679L76.7594 26.856C76.4604 26.8679 76.2245 27.113 76.2245 27.4113V42.3062Z" fill="white"/>
<path d="M76.9572 23.8876C77.5341 24.4634 78.2556 24.7513 79.1215 24.7513C80.0316 24.7513 80.7642 24.4634 81.3193 23.8876C81.8966 23.2896 82.1853 22.5477 82.1853 21.6619C82.1853 20.7982 81.8966 20.0674 81.3193 19.4694C80.7642 18.8715 80.0316 18.5725 79.1215 18.5725C78.2556 18.5725 77.5341 18.8715 76.9572 19.4694C76.3798 20.0674 76.0912 20.7982 76.0912 21.6619C76.0912 22.5477 76.3798 23.2896 76.9572 23.8876Z" fill="white"/>
<path fill-rule="evenodd" clip-rule="evenodd" d="M62.2025 33.3552V41.4309C62.2025 41.6987 62.0115 41.928 61.7478 41.9775L56.9013 42.881C56.5587 42.9452 56.2418 42.6826 56.2418 42.3348V19.8924C56.2418 19.5855 56.4916 19.3367 56.7993 19.3367H66.2985C67.8967 19.3367 69.2955 19.6356 70.4943 20.2336C71.7152 20.8315 72.6697 21.6509 73.3578 22.6918C74.0459 23.7327 74.3902 24.9507 74.3902 26.3459C74.3902 27.7411 74.0348 28.9702 73.3245 30.0333C72.6364 31.0741 71.6707 31.8936 70.4275 32.4915C69.8899 32.7406 69.3126 32.9358 68.6956 33.0771L75.0172 41.6607C75.3249 42.0785 74.9421 42.6521 74.437 42.5301L69.2118 41.2661C69.093 41.2372 68.9874 41.1707 68.9104 41.076L62.6289 33.3552H62.2025ZM62.2025 29.1031H65.4659C66.4427 29.1031 67.1864 28.8706 67.697 28.4055C68.2298 27.9183 68.4963 27.265 68.4963 26.4456C68.4963 25.6483 68.2298 25.0061 67.697 24.5189C67.1864 24.0095 66.4427 23.7548 65.4659 23.7548H62.2025V29.1031Z" fill="white"/>
<path d="M89.9568 43.3539C88.9578 43.3539 87.9699 43.2212 86.9932 42.9554C86.0386 42.6896 85.1393 42.3355 84.296 41.8922C83.6507 41.527 83.081 41.1206 82.5862 40.6734C82.3631 40.4718 82.3659 40.1272 82.5767 39.9121L84.9594 37.4851C85.1794 37.261 85.5399 37.2653 85.7798 37.4681C86.2169 37.8376 86.7101 38.1386 87.2596 38.3712C88.0144 38.6812 88.8133 38.8362 89.657 38.8362C90.1454 38.8362 90.5119 38.7698 90.7561 38.6369C91.0225 38.5041 91.1555 38.3158 91.1555 38.0722C91.1555 37.7179 90.9669 37.4521 90.5893 37.2749C90.2344 37.0756 89.7571 36.9095 89.1575 36.7766C88.5802 36.6216 87.9699 36.4445 87.3263 36.2452C86.6823 36.0237 86.0609 35.7358 85.4613 35.3814C84.8618 35.0271 84.3734 34.5288 83.9962 33.8866C83.6408 33.2444 83.4633 32.4249 83.4633 31.4283C83.4633 30.3875 83.7409 29.4795 84.296 28.7044C84.8729 27.9071 85.6722 27.287 86.6934 26.8441C87.7146 26.379 88.9134 26.1465 90.2896 26.1465C91.6884 26.1465 93.0201 26.3901 94.2856 26.8773C95.362 27.2728 96.4428 28.0391 97.2202 28.8452C97.4374 29.0708 97.3949 29.4297 97.146 29.6206L94.39 31.7355C94.1581 31.9134 93.8321 31.8773 93.6149 31.6822C93.2365 31.3424 92.8788 31.1654 92.3876 30.9965C91.744 30.7529 91.1555 30.6311 90.6227 30.6311C90.1121 30.6311 89.746 30.7086 89.524 30.8636C89.3021 30.9965 89.1909 31.1847 89.1909 31.4283C89.1909 31.7163 89.3684 31.9488 89.7238 32.126C90.101 32.3031 90.5782 32.4692 91.1555 32.6242C91.7551 32.7571 92.3654 32.9343 92.9872 33.1557C93.6308 33.3772 94.2411 33.6873 94.8184 34.0859C95.418 34.4624 95.8952 34.9717 96.2502 35.614C96.6278 36.2562 96.8164 37.0867 96.8164 38.1054C96.8164 39.722 96.195 41.0066 94.9518 41.9588C93.7086 42.8888 92.0434 43.3539 89.9568 43.3539Z" fill="white"/>
<path fill-rule="evenodd" clip-rule="evenodd" d="M101.169 42.1915C102.567 42.9001 104.177 43.2546 105.997 43.2546C107.44 43.2546 108.728 43.0221 109.86 42.5571C110.848 42.159 111.705 41.5989 112.433 40.8768C112.641 40.6705 112.629 40.3361 112.421 40.129L110.18 37.8933C109.952 37.6664 109.582 37.6812 109.344 37.8967C108.963 38.2416 108.546 38.5105 108.095 38.7036C107.496 38.9693 106.797 39.1022 105.997 39.1022C105.154 39.1022 104.443 38.9361 103.866 38.6039C103.289 38.2717 102.845 37.7845 102.534 37.1422C102.458 36.9796 102.391 36.809 102.334 36.6304L113.323 36.5795C113.578 36.5784 113.801 36.4054 113.851 36.1563C113.906 35.8843 113.941 35.6372 113.956 35.4148C114 35.0605 114.022 34.7173 114.022 34.385C114.022 32.8127 113.656 31.4175 112.924 30.1994C112.213 28.9593 111.214 27.9959 109.927 27.3094C108.661 26.6007 107.207 26.2463 105.564 26.2463C103.877 26.2463 102.357 26.6228 101.002 27.3758C99.6705 28.1066 98.6159 29.1143 97.8389 30.3987C97.0618 31.6611 96.6735 33.1116 96.6735 34.7505C96.6735 36.4114 97.073 37.8841 97.8722 39.1686C98.6715 40.453 99.7702 41.4607 101.169 42.1915ZM102.321 32.8993C102.373 32.7339 102.433 32.5758 102.501 32.4251C102.789 31.7829 103.2 31.2846 103.733 30.9303C104.266 30.5759 104.898 30.3987 105.631 30.3987C106.341 30.3987 106.93 30.5538 107.396 30.8638C107.862 31.1739 108.217 31.6278 108.461 32.2258C108.542 32.4149 108.61 32.6219 108.666 32.8469L102.321 32.8993Z" fill="white"/>
<path d="M107.151 23.939V19.6515H108.244V23.939H107.151ZM105.826 20.559V19.6211H109.568V20.559H105.826ZM109.76 23.939V19.6211H110.548L112.208 22.1242H111.836L113.491 19.6211H114.278V23.939H113.198V21.4238L113.368 21.4725L112.373 22.9646H111.665L110.676 21.4725L110.847 21.4238V23.939H109.76Z" fill="white"/>
<path d="M27.7846 17.3552C27.7846 17.0255 28.0307 16.7475 28.3586 16.7066L32.2899 16.2163C32.6809 16.1676 33.0263 16.4718 33.0263 16.8649V29.7643C33.0263 30.1574 32.6809 30.4616 32.2899 30.4128L28.3586 29.9226C28.0307 29.8817 27.7846 29.6037 27.7846 29.274V17.3552Z" fill="white"/>
<path d="M19.9219 18.9894C19.9219 18.6598 20.168 18.3817 20.4959 18.3408L24.4272 17.8506C24.8183 17.8018 25.1637 18.106 25.1637 18.4992V28.7839C25.1637 29.1771 24.8183 29.4813 24.4272 29.4325L20.4959 28.9423C20.168 28.9014 19.9219 28.6234 19.9219 28.2937V18.9894Z" fill="white"/>
<path d="M40.3928 17.3082C40.6843 17.3809 40.8891 17.6424 40.8891 17.9423V23.3914C40.8891 23.721 40.643 23.9991 40.315 24.04L36.3837 24.5302C35.9927 24.579 35.6473 24.2748 35.6473 23.8816V16.9618C35.6473 16.5366 36.0479 16.2246 36.4614 16.3277L40.3928 17.3082Z" fill="white"/>
<path d="M48.0965 19.5763C48.0965 19.2764 47.8916 19.0149 47.6002 18.9422L43.6689 17.9617C43.2552 17.8586 42.8546 18.1706 42.8546 18.5959V23.5547C42.8546 23.9479 43.2 24.2521 43.5911 24.2033L47.5224 23.713C47.8503 23.6722 48.0965 23.3941 48.0965 23.0645V19.5763Z" fill="white"/>
<path d="M48.0965 26.2561L35.3196 26.5829C35.5045 28.9803 37.5085 30.8316 39.9187 30.8316H42.8545V33.6134L19.9219 31.4852V45.1123L48.0965 43.1512V26.2561Z" fill="white"/>
</svg>
