<svg width="160" height="53" viewBox="0 0 160 53" fill="none" xmlns="http://www.w3.org/2000/svg">
<path d="M66.7294 35.2635C66.3561 34.9417 66.1418 34.6041 66.122 34.2502L66.7294 35.2635ZM66.7294 35.2635L66.7313 35.2651C67.1372 35.5992 67.7092 35.7585 68.432 35.7585H70.0138H70.1195V35.6522V35.4433V35.337H70.0138H69.2194L68.9437 35.2865L68.9387 35.2856L68.9333 35.2853C68.7689 35.2714 68.586 35.1597 68.3871 34.9105C68.2152 34.6571 68.1227 34.2912 68.1227 33.8006V25.6381C68.1227 24.7677 67.9015 24.047 67.451 23.4851L67.4497 23.4834C67.1548 23.1313 66.6924 22.871 66.0769 22.6939C65.4748 22.4983 64.6936 22.4024 63.738 22.4024C62.7605 22.4024 61.8641 22.7427 61.0519 23.4173C60.4025 23.9428 59.914 24.5058 59.5909 25.1072V22.6131V22.5067H59.4849H57.6696H57.5639V22.6131V35.6522V35.7585H57.6696H59.4849H59.5909V35.6522V26.3944C59.5909 25.7431 60.0056 24.987 60.8816 24.1233L60.8825 24.1226C61.7471 23.2531 62.715 22.8238 63.7898 22.8238C64.314 22.8238 64.746 22.9087 65.0905 23.0731C65.7443 23.4273 66.096 24.2508 66.096 25.6121V33.8006V33.8038V33.8066L66.122 34.2499L66.7294 35.2635ZM55.9291 18.5921L56.0267 18.6298L56.0652 18.5323L56.1691 18.2715L56.2108 18.1668L56.1045 18.1311C54.331 17.5367 52.5823 17.239 50.8583 17.239C49.1495 17.239 47.8485 17.6421 46.9741 18.467C46.1032 19.2715 45.6696 20.3267 45.6696 21.6221C45.6696 23.2567 46.3438 24.5245 47.6875 25.4137C48.2805 25.8169 48.9336 26.1846 49.6467 26.517V26.517L49.6489 26.5179C50.358 26.831 51.0585 27.1354 51.7506 27.4311L51.7515 27.4315C52.4561 27.7253 53.1002 28.0448 53.6831 28.3897C54.9691 29.1553 55.6022 30.2092 55.6022 31.5579C55.6022 32.7933 55.1169 33.7237 54.1459 34.3634C53.1809 34.9934 52.0088 35.3111 50.6249 35.3111C49.685 35.3111 48.762 35.1736 47.856 34.8985C46.966 34.606 46.2434 34.2372 45.6853 33.7953L45.5928 33.7218L45.53 33.8224L45.4005 34.0309L45.3474 34.1164L45.4293 34.1745C46.954 35.2493 48.7915 35.7843 50.9361 35.7843C52.0847 35.7843 53.0899 35.6531 53.9495 35.3887L53.9507 35.3881C54.8364 35.1032 55.5884 34.5688 56.2055 33.7886C56.827 33.0028 57.1363 32.0573 57.1363 30.958C57.1363 29.8522 56.9531 28.9384 56.5798 28.223C56.2096 27.4965 55.723 26.9259 55.1187 26.5149C54.5252 26.1111 53.8714 25.7517 53.157 25.4364C52.4461 25.1225 51.7349 24.8435 51.0237 24.5992C50.336 24.3399 49.7007 24.0635 49.1172 23.7702C47.8312 23.0893 47.2038 22.1396 47.2038 20.918C47.2038 19.9058 47.5793 19.1211 48.3288 18.5516C49.082 17.9792 50.1371 17.6864 51.5068 17.6864C52.8916 17.6864 54.3658 17.9874 55.9291 18.5921ZM70.6736 24.233L70.6732 24.2335C69.4729 25.4583 68.8794 27.1746 68.8794 29.3673C68.8794 31.5579 69.4547 33.2 70.6256 34.2704C71.7895 35.3345 73.2944 35.8626 75.1313 35.8626C76.9889 35.8626 78.5211 35.2537 79.7186 34.0319C80.9365 32.8072 81.5388 31.0908 81.5388 28.8979C81.5388 26.7071 80.9634 25.0651 79.7926 23.9947C78.6284 22.9306 77.1147 22.4024 75.2609 22.4024C73.4199 22.4024 71.888 23.0118 70.6736 24.233ZM72.1299 24.5543L72.1305 24.5537C72.9776 23.3953 74.0364 22.8238 75.3126 22.8238C76.5954 22.8238 77.6191 23.3139 78.3937 24.296C79.1674 25.2769 79.5636 26.8042 79.5636 28.8979C79.5636 30.9704 79.1341 32.5794 78.288 33.7369C77.4412 34.878 76.3821 35.4414 75.1052 35.4414C73.8227 35.4414 72.7987 34.9512 72.0241 33.9691C71.2505 32.988 70.8543 31.4694 70.8543 29.3934C70.8543 27.3028 71.2841 25.6942 72.1299 24.5543ZM99.2078 22.6944L99.1307 22.772L99.2103 22.8472C99.4594 23.0819 99.5918 23.4323 99.5918 23.917C99.5918 24.4063 99.4911 24.822 99.2944 25.1681L99.2922 25.1721L99.2903 25.1763L95.637 33.1321L91.7575 22.5762L91.7321 22.5067H91.6584H89.8431H89.6916L89.7437 22.6497L90.6883 25.2424L87.0789 33.1315L83.1997 22.5762L83.174 22.5067H83.1002H81.285H81.1329L81.1859 22.6502L86.0094 35.6891L86.0351 35.7585H86.1085H86.368H86.4361L86.4643 35.696L90.9223 25.8385L94.5675 35.6891L94.5929 35.7585H94.6667H94.9258H94.9939L95.0221 35.696L99.7421 25.2649L99.7431 25.2628C99.9554 24.7644 100.063 24.2721 100.063 23.7866C100.063 23.6567 100.045 23.5195 100.009 23.3757C99.9878 23.2156 99.9096 23.046 99.7863 22.8681C99.7336 22.78 99.6834 22.7065 99.6361 22.6493C99.5896 22.5931 99.5394 22.5451 99.4855 22.518L99.4174 22.4837L99.3634 22.5379L99.2078 22.6944Z" fill="white" stroke="white" stroke-width="0.674298"/>
<path d="M104.08 17.5861C104.566 16.8359 105.356 16.2548 106.451 16.2034L106.222 33.9818V33.983C106.222 34.1439 106.272 34.3171 106.363 34.5001C106.789 35.3566 107.805 35.7585 109.336 35.7585H110.14H110.246V35.6522V35.4434V35.3371H110.14H109.346L109.07 35.2866L109.065 35.2856L109.06 35.2853C108.895 35.2714 108.713 35.1598 108.514 34.9105C108.342 34.6572 108.249 34.2913 108.249 33.8007V16.1198V16.0151L108.145 16.0134L106.56 15.9874L106.454 15.9856L106.454 15.9888C104.68 16.0209 103.367 16.4405 102.542 17.2698C101.7 18.0993 101.292 19.4821 101.292 21.3875V22.5068H100.853H100.748V22.6132V23.0345V23.1409H100.853H101.292V35.6522V35.7585H101.398H103.213H103.319V35.6522V23.1409H105.262H105.368V23.0345V22.6132V22.5068H105.262H103.319V21.3875C103.319 19.6017 103.579 18.3421 104.079 17.587L104.08 17.5861ZM117.889 29.2776C117.535 29.2491 117.147 29.2349 116.724 29.2349C116.254 29.2349 115.741 29.2611 115.186 29.3135C114.067 29.3832 113.142 29.5143 112.412 29.7078C111.683 29.901 111.138 30.159 110.79 30.4897C110.456 30.8079 110.241 31.1113 110.164 31.4001C110.093 31.6681 110.057 31.9208 110.057 32.1577C110.057 32.3719 110.075 32.5861 110.11 32.8C110.26 33.8102 110.653 34.5802 111.296 35.0964C111.939 35.6115 112.819 35.8626 113.923 35.8626C114.872 35.8626 115.696 35.6661 116.394 35.2686C116.989 34.9291 117.487 34.4458 117.889 33.8212V33.983C117.889 34.308 118.117 34.6648 118.516 35.0493C118.981 35.5333 119.823 35.7585 121.003 35.7585H121.807H121.912V35.6522V35.4434V35.3371H121.807H121.012L120.737 35.2866L120.732 35.2856L120.726 35.2853C120.562 35.2714 120.379 35.1598 120.18 34.9105C120.008 34.6572 119.916 34.2913 119.916 33.8007V25.0645C119.916 24.4766 119.678 23.9221 119.215 23.4029C118.911 23.0607 118.453 22.8115 117.854 22.6474C117.254 22.4833 116.505 22.4025 115.609 22.4025C114.002 22.4025 112.422 22.7627 110.871 23.4814L110.766 23.53L110.823 23.6308L110.927 23.8134L110.979 23.9053L111.071 23.8532C111.456 23.634 112.068 23.4108 112.913 23.1854V23.1854L112.914 23.185C113.773 22.9432 114.515 22.8238 115.142 22.8238C115.774 22.8238 116.276 22.9099 116.656 23.0758V23.0759L116.659 23.0773C117.048 23.2301 117.302 23.4111 117.441 23.6125C117.592 23.8313 117.708 24.0578 117.791 24.2919L117.793 24.2963L117.795 24.3006C117.894 24.5158 117.919 24.6813 117.892 24.8054C117.874 24.8771 117.863 24.9409 117.863 24.9928C117.863 25.0188 117.866 25.0483 117.876 25.0764C117.879 25.0854 117.883 25.0949 117.889 25.1043V29.2776ZM112.136 32.7744L112.135 32.7729C112.118 32.6019 112.11 32.4489 112.11 32.3142C112.11 31.5678 112.304 30.9965 112.678 30.5868C112.861 30.3876 113.155 30.2126 113.575 30.0677C113.993 29.9233 114.528 29.8115 115.18 29.7338C115.643 29.6821 116.106 29.6562 116.568 29.6562C117.016 29.6562 117.456 29.6712 117.889 29.7011V32.7527C117.839 33.3013 117.466 33.8938 116.733 34.5282C116.025 35.1383 115.228 35.4415 114.338 35.4415C113.672 35.4415 113.166 35.221 112.805 34.7884C112.44 34.3512 112.212 33.6852 112.136 32.7744ZM124.118 16.0937V15.9873H124.012H122.196H122.091V16.0937V35.6522V35.7585H122.196H124.012H124.118V35.6522V29.4072L124.702 28.7328L129.422 35.7118L129.454 35.7585H129.51H131.325H131.525L131.412 35.5923L125.883 27.4201L130.056 22.6837L130.211 22.5068H129.976H129.717H129.67L129.638 22.5426L124.118 28.8003V16.0937ZM141.497 34.7235L141.457 34.6294L141.362 34.666C140.027 35.1822 138.502 35.4415 136.783 35.4415C135.59 35.4415 134.627 34.9538 133.886 33.9714C133.163 32.9905 132.792 31.4364 132.792 29.2891C132.792 28.8224 132.814 28.3711 132.859 27.9351H142.022H142.128V27.8287V27.8282V27.8277V27.8272V27.8267V27.8262V27.8257V27.8252V27.8247V27.8242V27.8236V27.8231V27.8226V27.8221V27.8216V27.8211V27.8206V27.8201V27.8196V27.8191V27.8186V27.818V27.8175V27.817V27.8165V27.816V27.8155V27.815V27.8145V27.814V27.8135V27.813V27.8124V27.8119V27.8114V27.8109V27.8104V27.8099V27.8094V27.8089V27.8084V27.8079V27.8073V27.8068V27.8063V27.8058V27.8053V27.8048V27.8043V27.8038V27.8033V27.8028V27.8023V27.8018V27.8013V27.8007V27.8002V27.7997V27.7992V27.7987V27.7982V27.7977V27.7971V27.7966V27.7961V27.7956V27.7951V27.7946V27.7941V27.7936V27.7931V27.7926V27.7921V27.7916V27.7911V27.7906V27.79V27.7895V27.789V27.7885V27.788V27.7875V27.787V27.7865V27.7859V27.7854V27.7849V27.7844V27.7839V27.7834V27.7829V27.7824V27.7819V27.7814V27.7809V27.7804V27.7799V27.7793V27.7788V27.7783V27.7778V27.7773V27.7768V27.7763V27.7758V27.7753V27.7747V27.7742V27.7737V27.7732V27.7727V27.7722V27.7717V27.7712V27.7707V27.7702V27.7697V27.7691V27.7686V27.7681V27.7676V27.7671V27.7666V27.7661V27.7656V27.7651V27.7646V27.7641V27.7636V27.763V27.7625V27.762V27.7615V27.761V27.7605V27.76V27.7595V27.759V27.7584V27.7579V27.7574V27.7569V27.7564V27.7559V27.7554V27.7549V27.7544V27.7539V27.7534V27.7529V27.7524V27.7518V27.7513V27.7508V27.7503V27.7498V27.7493V27.7488V27.7483V27.7477V27.7472V27.7467V27.7462V27.7457V27.7452V27.7447V27.7442V27.7437V27.7432V27.7427V27.7422V27.7417V27.7412V27.7406V27.7401V27.7396V27.7391V27.7386V27.7381V27.7376V27.7371V27.7365V27.736V27.7355V27.735V27.7345V27.734V27.7335V27.733V27.7325V27.732V27.7315V27.731V27.7304V27.7299V27.7294V27.7289V27.7284V27.7279V27.7274V27.7269V27.7264V27.7259V27.7253V27.7248V27.7243V27.7238V27.7233V27.7228V27.7223V27.7218V27.7213V27.7208V27.7203V27.7197V27.7192V27.7187V27.7182V27.7177V27.7172V27.7167V27.7162V27.7157V27.7152V27.7147V27.7141V27.7136V27.7131V27.7126V27.7121V27.7116V27.7111V27.7106V27.7101V27.7096V27.709V27.7085V27.708V27.7075V27.707V27.7065V27.706V27.7055V27.705V27.7045V27.704V27.7035V27.7029V27.7024V27.7019V27.7014V27.7009V27.7004V27.6999V27.6994V27.6989V27.6983V27.6978V27.6973V27.6968V27.6963V27.6958V27.6953V27.6948V27.6943V27.6938V27.6933V27.6928V27.6923V27.6917V27.6912V27.6907V27.6902V27.6897V27.6892V27.6887V27.6882V27.6876V27.6871V27.6866V27.6861V27.6856V27.6851V27.6846V27.6841V27.6836V27.6831V27.6826V27.6821V27.6816V27.681V27.6805V27.68V27.6795V27.679V27.6785V27.678V27.6775V27.677V27.6764V27.6759V27.6754V27.6749V27.6744V27.6739V27.6734V27.6729V27.6724V27.6719V27.6714V27.6709V27.6703V27.6698V27.6693V27.6688V27.6683V27.6678V27.6673V27.6668V27.6663V27.6658V27.6652V27.6647V27.6642V27.6637V27.6632V27.6627V27.6622V27.6617V27.6612V27.6607V27.6601V27.6596V27.6591V27.6586V27.6581V27.6576V27.6571V27.6566V27.6561V27.6556V27.6551V27.6546V27.654V27.6535V27.653V27.6525V27.652V27.6515V27.651V27.6505V27.65V27.6494V27.6489V27.6484V27.6479V27.6474V27.6469V27.6464V27.6459V27.6454V27.6449V27.6444V27.6439V27.6434V27.6428V27.6423V27.6418V27.6413V27.6408V27.6403V27.6398V27.6393V27.6387V27.6382V27.6377V27.6372V27.6367V27.6362V27.6357V27.6352V27.6347V27.6342V27.6337V27.6332V27.6327V27.6322V27.6316V27.6311V27.6306V27.6301V27.6296V27.6291V27.6286V27.6281V27.6275V27.627V27.6265V27.626V27.6255V27.625V27.6245V27.624V27.6235V27.623V27.6225V27.622V27.6214V27.6209V27.6204V27.6199V27.6194V27.6189V27.6184V27.6179V27.6174V27.6169V27.6164V27.6158V27.6153V27.6148V27.6143V27.6138V27.6133V27.6128V27.6123V27.6118V27.6113V27.6107V27.6102V27.6097V27.6092V27.6087V27.6082V27.6077V27.6072V27.6067V27.6062V27.6057V27.6052V27.6046V27.6041V27.6036V27.6031V27.6026V27.6021V27.6016V27.6011V27.6006V27.6V27.5995V27.599V27.5985V27.598V27.5975V27.597V27.5965V27.596V27.5955V27.595V27.5945V27.5939V27.5934V27.5929V27.5924V27.5919V27.5914V27.5909V27.5904V27.5899V27.5893V27.5888V27.5883V27.5878V27.5873V27.5868V27.5863V27.5858V27.5853V27.5848V27.5843V27.5838V27.5833V27.5827V27.5822V27.5817V27.5812V27.5807V27.5802V27.5797V27.5792V27.5786V27.5781V27.5776V27.5771V27.5766V27.5761V27.5756V27.5751V27.5746V27.5741V27.5736V27.5731V27.5726V27.572V27.5715V27.571V27.5705V27.57V27.5695V27.569V27.5685V27.568C142.128 25.8778 141.637 24.5842 140.639 23.7066C139.65 22.836 138.431 22.4025 136.991 22.4025C135.201 22.4025 133.72 23.0126 132.558 24.2347C131.393 25.4596 130.817 27.1755 130.817 29.3673C130.817 31.5567 131.365 33.1981 132.483 34.2689C133.595 35.3336 135.032 35.8626 136.783 35.8626C138.541 35.8626 140.118 35.5917 141.516 35.0471L141.618 35.0074L141.575 34.9061L141.497 34.7235ZM139.216 23.9826C139.804 24.7386 140.121 25.9096 140.151 27.5138H132.912C133.126 26.0561 133.598 24.9184 134.321 24.092C135.083 23.2411 135.937 22.8238 136.887 22.8238C137.839 22.8238 138.613 23.2079 139.216 23.9826Z" fill="white" stroke="white" stroke-width="0.674298"/>
<path d="M144.415 15.8201V16.509H143.636V18.6051H142.897V16.509H142.118V15.8201H144.415Z" fill="white"/>
<path d="M147.451 15.7783V18.6176H146.712V17.2397L146.17 17.8869H145.949L145.407 17.2397V18.6176H144.667V15.7783H144.928L146.059 16.9892L147.19 15.7783H147.451Z" fill="white"/>
<path fill-rule="evenodd" clip-rule="evenodd" d="M25.2491 31.1159L25.2378 40.0702L27.1201 40.0724L27.1314 31.0766L30.5653 39.3834L32.3034 38.6569L28.8932 30.4071L35.1674 36.7325L36.5001 35.3958L30.199 29.0432L38.4401 32.4824L39.1614 30.7341L30.9195 27.2945H39.8431V25.4016H30.9409L39.1692 21.9844L38.4505 20.2349L30.2574 23.6375L36.5575 17.367L35.2336 16.0217L28.8551 22.37L32.2924 14.0337L30.5534 13.3087L27.1434 21.5792L27.1547 12.6261L25.2724 12.6237L25.261 21.6204L21.8269 13.3128L20.0887 14.0393L23.4986 22.2883L17.2249 15.9635L15.8922 17.3003L22.1935 23.6529L13.9522 20.2135L13.2307 21.9618L21.4731 25.4016H12.549V27.2945H21.4519L13.2233 30.7119L13.9418 32.4616L22.1346 29.0589L15.8346 35.3292L17.1588 36.6744L23.5368 30.3265L20.0998 38.6622L21.8386 39.3872L25.2491 31.1159Z" fill="white"/>
</svg>
