<svg width="21" height="21" viewBox="0 0 21 21" fill="none" xmlns="http://www.w3.org/2000/svg">
<path d="M14.9021 11.4583C15.6209 11.4583 16.2534 11.0654 16.5792 10.4713L20.01 4.25167C20.3646 3.61917 19.9046 2.83333 19.1763 2.83333H4.99296L4.09212 0.916668H0.958374V2.83333H2.87504L6.32504 10.1071L5.03129 12.4454C4.33171 13.7296 5.25171 15.2917 6.70837 15.2917H18.2084V13.375H6.70837L7.76254 11.4583H14.9021ZM5.90337 4.75H17.5471L14.9021 9.54167H8.17462L5.90337 4.75ZM6.70837 16.25C5.65421 16.25 4.80129 17.1125 4.80129 18.1667C4.80129 19.2208 5.65421 20.0833 6.70837 20.0833C7.76254 20.0833 8.62504 19.2208 8.62504 18.1667C8.62504 17.1125 7.76254 16.25 6.70837 16.25ZM16.2917 16.25C15.2375 16.25 14.3846 17.1125 14.3846 18.1667C14.3846 19.2208 15.2375 20.0833 16.2917 20.0833C17.3459 20.0833 18.2084 19.2208 18.2084 18.1667C18.2084 17.1125 17.3459 16.25 16.2917 16.25Z" fill="white"/>
</svg>
